# xmcd
#
# Track frame offsets: 
#        150
#        14288
#        26660
#        35688
#        39800
#        46738
#        55863
#        65588
#        80988
#        90900
#        97213
#        105888
#        121783
#        131388
#        139235
#        148200
#        157963
#        164885
#        168763
#        173700
#        182763
#        192338
#        198450
#        210263
#        217310
#        226163
#        242675
#
# Disc length: 3476 seconds
#
# Revision: 0
# Processed by: cddbd v1.5.2PL0 Copyright (c) Steve Scherf et al.
# Submitted via: ExactAudioCopyFreeDBPlugin 1.0
#
DISCID=750d921b
DTITLE=千住 明 - B'T X Original Soundtrack I
DYEAR=1996
DGENRE=Soundtrack
TTITLE0=エックス復活！
TTITLE1=廃墟の戦士
TTITLE2=長老の樹
TTITLE3=機械万国博
TTITLE4=机械皇国
TTITLE5=リュカオンよ追撃せよ！
TTITLE6=伝説のエックス
TTITLE7=鋼太郎と鉄兵
TTITLE8=裏切りの運命
TTITLE9=死への聖書
TTITLE10=エリアへの遠い道
TTITLE11=導く華蓮
TTITLE12=戦争兵器、ビート
TTITLE13=俺を感じろ！
TTITLE14=待ち伏せるポイント
TTITLE15=鉄兵の誓い
TTITLE16=迫るメタルフェイス
TTITLE17=罠への道
TTITLE18=平和な日溜まり
TTITLE19=隠された危険
TTITLE20=戦いの麒麟
TTITLE21=鳳のレクイエム
TTITLE22=哀愁の華蓮
TTITLE23=エックスと共に...
TTITLE24=バトル・ギア、オン！
TTITLE25=FENCE OF DEFENSE - 遙か～SAILING FOR MY DREAM～
TTITLE26=BLUE BOY - 僕の生き方
EXTD=
EXTT0=
EXTT1=
EXTT2=
EXTT3=
EXTT4=
EXTT5=
EXTT6=
EXTT7=
EXTT8=
EXTT9=
EXTT10=
EXTT11=
EXTT12=
EXTT13=
EXTT14=
EXTT15=
EXTT16=
EXTT17=
EXTT18=
EXTT19=
EXTT20=
EXTT21=
EXTT22=
EXTT23=
EXTT24=
EXTT25=
EXTT26=
PLAYORDER=
